<svg xmlns="http://www.w3.org/2000/svg" viewBox="0 0 942 783">
  <path fill="#e3dad2"
    d="M850 549 551 689l-74 35c-24 11-47 23-72 33-43 19-95 32-138 7-34-20-48-60-63-93-8-17-16-34-29-48-13-16-32-27-51-35-38-17-86-27-109-65-27-43 5-91 34-123 15-17 31-34 42-54 12-19 18-41 21-63 6-46-1-92 2-138 2-37 11-77 35-106a94 94 0 0 1 50-31c23-6 48-2 70 4 47 15 87 46 132 65 39 16 92 21 126-9 8-6 14-15 21-22a124 124 0 0 1 22-16 144 144 0 0 1 52-18c37-6 76 2 106 25 36 28 55 71 73 111l67 146 35 75a1300 1300 0 0 0 29 68c6 19 8 41-2 59-8 14-21 24-35 32-15 8-30 14-46 21-2 1 0 5 3 4 29-13 66-24 82-54 22-41-7-87-23-124l-69-150-35-77c-9-21-19-42-31-61-11-20-25-38-42-52a135 135 0 0 0-49-24 155 155 0 0 0-108 10c-17 8-31 20-43 34a88 88 0 0 1-63 29c-52 4-96-25-139-48-40-23-88-45-135-33-39 10-64 42-76 78-14 40-13 81-12 123 1 48 3 100-23 142-25 40-66 68-81 114-7 21-7 44 4 64 10 17 27 30 44 39 39 22 87 28 118 63 26 29 35 69 54 102 10 16 23 31 40 41 20 11 42 14 64 13 24-1 48-8 70-17 25-10 50-22 74-33l305-144 74-35c3-1 0-6-2-4Z" />
</svg>
